<?xml version="1.0" standalone="no"?>
<!DOCTYPE svg PUBLIC "-//W3C//DTD SVG 20010904//EN"
 "http://www.w3.org/TR/2001/REC-SVG-20010904/DTD/svg10.dtd">
<svg version="1.0" xmlns="http://www.w3.org/2000/svg"
 width="384.000000pt" height="640.000000pt" viewBox="0 0 384.000000 640.000000"
 preserveAspectRatio="xMidYMid meet">

<g transform="translate(0.000000,640.000000) scale(0.100000,-0.100000)"
fill="#ff6e00" stroke="none">
<path d="M1687 5919 c-87 -12 -250 -53 -330 -83 -92 -34 -242 -112 -323 -167
-92 -62 -256 -209 -317 -285 -151 -185 -229 -345 -282 -576 l-25 -107 0 -903
0 -903 -46 -55 c-25 -30 -54 -73 -65 -95 l-20 -40 28 35 c15 19 67 75 115 123
48 48 96 102 105 120 l18 32 3 -33 c4 -37 -12 -64 -96 -164 -42 -50 -82 -133
-82 -169 0 -49 136 -323 206 -414 19 -25 34 -47 34 -50 0 -3 -11 -5 -25 -5
-68 0 -135 -59 -135 -118 0 -16 14 -56 30 -87 17 -31 30 -64 30 -72 0 -8 11
-24 24 -34 l25 -19 -25 -25 c-32 -33 -30 -45 8 -45 54 0 20 -16 -126 -60 -77
-23 -161 -52 -188 -66 l-48 -24 0 -69 c0 -85 9 -97 115 -160 43 -25 80 -51 82
-58 3 -7 -8 -15 -24 -19 -44 -11 -74 -44 -40 -44 8 0 46 -21 86 -47 62 -40 69
-48 54 -57 -10 -6 -24 -11 -31 -12 -26 -4 -25 -14 0 -14 14 0 33 9 44 21 18
21 18 21 -23 60 -27 25 -36 39 -26 39 13 0 13 3 3 15 -9 10 -10 19 -3 26 6 6
66 -19 169 -72 179 -91 184 -94 184 -119 0 -11 12 -22 27 -28 37 -13 70 -39
61 -47 -6 -7 -76 3 -148 20 -23 6 -22 5 5 -12 l30 -18 -34 -3 -33 -3 22 -24
22 -24 -23 5 c-41 9 40 -33 96 -50 67 -20 261 -33 251 -18 -4 7 -14 12 -23 12
-9 0 -13 6 -9 15 3 9 0 15 -9 15 -14 0 -33 46 -23 55 2 2 15 -2 28 -9 14 -7
104 -55 200 -106 96 -51 229 -123 295 -160 66 -37 181 -102 256 -144 74 -42
143 -76 153 -76 9 0 52 20 94 44 152 86 570 315 705 385 l137 73 0 -27 c0 -17
-11 -37 -31 -56 l-31 -29 28 -2 c69 -4 218 18 256 39 18 9 36 17 40 18 3 0 10
4 15 9 5 5 3 6 -4 2 -24 -14 -13 12 15 34 25 20 25 21 4 17 -12 -3 -20 -1 -16
4 3 5 0 9 -6 9 -6 0 -8 4 -5 10 8 13 7 13 -61 -5 -32 -8 -60 -12 -63 -9 -11
11 16 38 50 49 26 9 35 19 39 40 4 25 23 37 160 106 85 43 162 79 171 79 9 0
19 -7 23 -15 3 -8 0 -15 -7 -15 -9 0 -8 -3 1 -9 10 -6 3 -17 -28 -44 -47 -40
-48 -61 -3 -70 37 -7 43 0 9 12 -14 6 -26 15 -26 20 0 5 36 29 80 52 44 24 80
46 80 50 0 4 -18 14 -40 23 -22 9 -40 20 -40 25 0 5 40 33 90 61 49 28 97 61
105 73 10 14 15 45 15 89 0 92 29 76 -368 199 -56 17 -100 34 -98 37 3 2 25
-1 50 -8 24 -7 49 -9 55 -5 16 9 13 35 -4 35 -19 0 -19 9 -1 29 8 9 28 49 45
90 58 138 37 191 -93 235 -18 6 -18 8 6 34 84 91 238 419 238 507 0 40 -45
126 -110 211 -33 43 -60 87 -60 99 0 30 107 -89 185 -207 35 -53 69 -99 75
-103 17 -11 -26 70 -81 152 l-48 71 -4 894 c-3 869 -4 895 -24 978 -61 246
-174 448 -355 635 -229 239 -494 386 -816 456 -111 24 -456 35 -575 18z m478
-214 c0 -14 -8 -21 -27 -23 -22 -3 -28 1 -28 16 0 25 10 33 35 30 12 -2 20
-10 20 -23z m-517 -22 c-5 -26 -38 -29 -38 -4 0 15 6 21 21 21 14 0 19 -5 17
-17z m752 -15 c0 -19 -2 -20 -10 -8 -13 19 -13 30 0 30 6 0 10 -10 10 -22z
m50 -18 c0 -5 -2 -10 -4 -10 -3 0 -8 5 -11 10 -3 6 -1 10 4 10 6 0 11 -4 11
-10z m-922 -62 c32 -32 -2 -79 -43 -60 -29 13 -32 34 -9 56 19 19 36 20 52 4z
m362 -43 c0 -8 -15 -30 -34 -49 -36 -36 -37 -46 -1 -46 11 0 26 -5 33 -12 8
-8 15 -8 24 0 7 5 30 13 50 17 l38 7 -40 46 c-51 60 -42 71 14 17 34 -34 55
-45 90 -50 60 -9 69 -25 14 -25 -64 -1 -117 -15 -137 -39 -10 -11 -21 -17 -25
-14 -4 4 -4 0 0 -10 4 -13 1 -17 -15 -17 -17 0 -21 -6 -21 -29 0 -29 -14 -49
-24 -33 -2 4 -1 23 3 42 10 45 -4 86 -32 94 -12 3 -44 6 -72 6 -55 1 -46 13
17 24 30 5 44 16 68 52 30 42 50 50 50 19z m696 14 c10 -17 -13 -36 -27 -22
-12 12 -4 33 11 33 5 0 12 -5 16 -11z m-1391 -99 c3 -5 -1 -10 -10 -10 -9 0
-13 5 -10 10 3 6 8 10 10 10 2 0 7 -4 10 -10z m1380 0 c3 -5 1 -10 -4 -10 -6
0 -11 5 -11 10 0 6 2 10 4 10 3 0 8 -4 11 -10z m255 -45 c0 -8 -4 -15 -10 -15
-5 0 -10 7 -10 15 0 8 5 15 10 15 6 0 10 -7 10 -15z m-520 -15 c0 -5 -7 -10
-15 -10 -8 0 -15 5 -15 10 0 6 7 10 15 10 8 0 15 -4 15 -10z m-363 -62 c-2
-13 -4 -5 -4 17 -1 22 1 32 4 23 2 -10 2 -28 0 -40z m-597 17 c-7 -8 -16 -12
-21 -9 -13 8 -1 24 18 24 13 0 13 -3 3 -15z m885 -14 c7 -12 -12 -24 -25 -16
-11 7 -4 25 10 25 5 0 11 -4 15 -9z m605 -11 c0 -5 -7 -10 -15 -10 -8 0 -15 5
-15 10 0 6 7 10 15 10 8 0 15 -4 15 -10z m-1700 -35 c0 -8 -7 -15 -15 -15 -16
0 -20 12 -8 23 11 12 23 8 23 -8z m1758 -43 c2 -7 -3 -12 -12 -12 -9 0 -16 7
-16 16 0 17 22 14 28 -4z m-2008 -2 c0 -5 -4 -10 -10 -10 -5 0 -10 5 -10 10 0
6 5 10 10 10 6 0 10 -4 10 -10z m1734 -21 c-3 -5 -10 -7 -15 -3 -5 3 -7 10 -3
15 3 5 10 7 15 3 5 -3 7 -10 3 -15z m146 -10 c0 -5 -7 -9 -15 -9 -15 0 -20 12
-9 23 8 8 24 -1 24 -14z m-1527 -45 c-12 -20 -18 -21 -34 -11 -23 15 -24 26
-2 42 12 9 22 10 34 2 15 -10 16 -13 2 -33z m832 40 c14 -6 14 -8 -1 -25 -13
-15 -20 -16 -31 -8 -10 9 -10 15 -2 25 13 16 12 16 34 8z m-460 -14 c-3 -5
-10 -10 -16 -10 -5 0 -9 5 -9 10 0 6 7 10 16 10 8 0 12 -4 9 -10z m1460 -32
l37 -21 -31 -13 c-25 -11 -31 -19 -32 -46 -1 -27 -2 -29 -6 -8 -6 32 -30 58
-57 62 -19 3 -17 5 14 25 19 12 36 22 37 22 1 1 18 -9 38 -21z m-555 2 c0 -5
-5 -10 -11 -10 -5 0 -7 5 -4 10 3 6 8 10 11 10 2 0 4 -4 4 -10z m-906 -21 c-3
-5 -10 -7 -15 -3 -5 3 -7 10 -3 15 3 5 10 7 15 3 5 -3 7 -10 3 -15z m898 -21
c14 -14 18 -23 10 -26 -7 -2 -18 -10 -26 -17 -11 -11 -16 -10 -31 8 -12 14
-14 22 -7 25 7 2 12 10 12 18 0 20 17 17 42 -8z m-616 -23 c8 -20 -13 -45 -38
-45 -21 0 -33 22 -24 45 7 20 55 19 62 0z m-1171 -14 c7 -12 -12 -24 -25 -16
-11 7 -4 25 10 25 5 0 11 -4 15 -9z m709 -17 c19 -7 21 -40 4 -47 -29 -10 -53
25 -31 46 8 8 8 8 27 1z m1801 -4 c3 -5 1 -10 -4 -10 -6 0 -11 5 -11 10 0 6 2
10 4 10 3 0 8 -4 11 -10z m-2402 -69 l31 -11 -32 -23 c-20 -14 -32 -31 -33
-47 l0 -25 -12 25 c-17 35 -39 60 -54 60 -25 0 -13 18 16 25 17 4 32 15 36 28
l8 22 4 -22 c3 -13 16 -26 36 -32z m1927 -1 c0 -5 -5 -10 -11 -10 -5 0 -7 5
-4 10 3 6 8 10 11 10 2 0 4 -4 4 -10z m-480 -15 c0 -9 -7 -18 -16 -22 -18 -7
-39 11 -30 26 11 17 46 13 46 -4z m580 5 c0 -5 -4 -10 -10 -10 -5 0 -10 5 -10
10 0 6 5 10 10 10 6 0 10 -4 10 -10z m-1790 -19 c0 -5 8 -11 18 -13 15 -3 14
-6 -5 -16 -17 -10 -28 -10 -44 -2 -20 11 -20 12 -2 25 21 17 33 19 33 6z
m2160 -12 c0 -5 -7 -9 -15 -9 -15 0 -20 12 -9 23 8 8 24 -1 24 -14z m-1137
-78 c141 -37 308 -129 382 -212 77 -87 145 -209 171 -309 16 -61 19 -176 5
-185 -14 -8 -18 2 -35 105 -12 66 -14 96 -6 98 8 3 8 8 0 17 -5 6 -16 29 -23
49 -7 21 -16 36 -19 34 -4 -2 -24 14 -46 35 -25 24 -44 36 -54 32 -9 -4 -19
-1 -24 6 -5 9 -2 10 12 5 13 -5 16 -4 9 3 -12 12 -57 3 -50 -10 3 -4 -19 3
-50 16 -58 26 -75 26 -25 0 16 -8 39 -25 50 -37 11 -12 20 -19 20 -16 0 4 10
-2 23 -13 48 -41 62 -54 50 -45 -8 5 -16 6 -20 3 -3 -4 -14 -2 -25 4 -11 6
-22 8 -25 5 -3 -3 10 -13 30 -22 30 -15 34 -21 32 -50 -1 -19 2 -34 7 -34 4 0
8 -5 8 -11 0 -8 -5 -8 -15 1 -8 7 -24 10 -36 7 -12 -3 -50 8 -92 27 -40 18
-85 35 -102 39 -16 3 -43 11 -60 17 -27 11 -105 21 -177 22 -15 1 -25 5 -22 9
3 5 -17 9 -45 9 -27 0 -53 -4 -56 -10 -3 -5 -41 -10 -84 -10 -42 0 -81 -4 -86
-9 -8 -7 -136 -44 -188 -54 -38 -7 -165 -83 -208 -124 -28 -26 -55 -50 -61
-52 -8 -2 -9 26 -6 90 10 166 93 336 211 433 158 129 430 188 630 137z m314 3
c-3 -3 -12 -4 -19 -1 -8 3 -5 6 6 6 11 1 17 -2 13 -5z m-1667 -14 c0 -5 -4
-10 -10 -10 -5 0 -10 5 -10 10 0 6 5 10 10 10 6 0 10 -4 10 -10z m510 -85
l-21 -22 -24 21 c-22 19 -23 21 -5 28 10 4 21 12 25 18 5 8 13 6 26 -6 19 -17
19 -18 -1 -39z m1400 40 c0 -8 -4 -15 -9 -15 -13 0 -22 16 -14 24 11 11 23 6
23 -9z m198 -191 c-11 -12 -19 -12 -40 -2 l-26 13 21 20 c22 21 22 21 41 2 16
-16 17 -21 4 -33z m-1858 -8 c0 -3 -4 -8 -10 -11 -5 -3 -10 -1 -10 4 0 6 5 11
10 11 6 0 10 -2 10 -4z m-177 -143 c10 -10 35 -23 56 -29 l36 -11 -44 -13
c-33 -11 -47 -21 -55 -42 -6 -15 -13 -28 -16 -28 -3 0 -10 13 -16 28 -8 21
-22 31 -55 42 l-44 13 37 11 c21 6 45 19 55 29 21 21 22 21 46 0z m1382 -72
c161 -42 381 -175 398 -241 4 -17 3 -19 -9 -9 -12 10 -12 5 1 -31 21 -59 19
-71 -6 -30 -68 116 -267 218 -488 250 -103 16 -301 8 -395 -14 -198 -48 -352
-150 -411 -272 l-23 -48 -7 66 c-6 59 -5 69 19 106 52 82 232 185 388 221 122
29 129 30 298 26 116 -2 175 -9 235 -24z m840 -21 c3 -5 -1 -10 -10 -10 -9 0
-13 5 -10 10 3 6 8 10 10 10 2 0 7 -4 10 -10z m-1835 -12 c0 -4 -7 -8 -15 -8
-8 0 -15 4 -15 8 0 5 7 9 15 9 8 0 15 -4 15 -9z m2020 -2 c0 -11 -19 -15 -25
-6 -3 5 1 10 9 10 9 0 16 -2 16 -4z m-25 -26 c3 -5 1 -10 -4 -10 -6 0 -11 5
-11 10 0 6 2 10 4 10 3 0 8 -4 11 -10z m-1012 -36 c53 -13 128 -39 165 -58 87
-44 181 -121 209 -171 32 -57 28 -67 -5 -14 -41 65 -104 115 -207 164 -129 62
-196 77 -367 82 -223 8 -383 -27 -507 -111 -24 -16 -41 -24 -36 -17 11 19 105
75 155 94 190 69 396 80 593 31z m292 16 c39 -26 25 -26 -17 0 -18 11 -28 20
-23 20 6 0 24 -9 40 -20z m-1245 -19 c0 -5 -11 -16 -25 -25 -24 -16 -25 -16
-25 9 0 20 5 25 25 25 14 0 25 -4 25 -9z m-22 -89 c2 -22 -2 -34 -12 -37 -9
-3 -23 -7 -31 -10 -13 -4 -13 -8 0 -39 8 -20 15 -56 15 -81 0 -38 -3 -45 -19
-45 -23 0 -31 31 -29 110 1 41 6 58 20 68 10 7 18 23 18 36 0 48 33 46 38 -2z
m1628 -17 c57 -34 106 -96 150 -190 37 -80 66 -210 62 -277 -1 -25 4 -44 17
-58 10 -11 16 -22 14 -24 -8 -7 -110 -38 -114 -34 -2 2 16 14 41 27 31 17 41
27 32 32 -7 5 -18 28 -25 51 l-11 43 -1 -35 c-1 -36 -16 -69 -26 -59 -3 4 -2
25 4 48 9 42 -3 67 -20 40 -7 -12 -9 -11 -9 1 0 12 -2 12 -9 2 -4 -7 -6 -24
-4 -36 3 -16 0 -23 -12 -23 -10 0 -18 11 -22 29 -3 15 -12 29 -19 29 -41 4
-72 19 -77 37 -3 9 -6 -1 -7 -23 -6 -80 -19 108 -18 247 2 149 -2 162 -53 173
-17 4 -29 13 -29 22 0 23 82 10 136 -22z m-1756 5 c0 -5 -2 -10 -4 -10 -3 0
-8 5 -11 10 -3 6 -1 10 4 10 6 0 11 -4 11 -10z m495 -59 c0 -8 -8 -19 -18 -25
-22 -14 -42 11 -25 32 14 16 43 12 43 -7z m1571 8 c9 -16 -18 -30 -33 -17 -7
6 -10 14 -7 19 7 13 31 11 40 -2z m-1422 -33 c14 -19 26 -45 26 -59 0 -41 -67
-87 -125 -87 -19 0 -28 10 -45 46 -25 59 -25 66 3 84 31 20 90 48 103 49 7 1
23 -14 38 -33z m-494 -46 c0 -41 -4 -70 -10 -70 -14 0 -17 13 -23 83 -5 51 -4
57 14 57 17 0 19 -8 19 -70z m1518 13 c3 -51 2 -53 -22 -53 -25 0 -26 3 -26
56 0 52 1 55 23 52 19 -3 22 -10 25 -55z m-128 27 c6 -11 8 -20 6 -20 -3 0
-10 9 -16 20 -6 11 -8 20 -6 20 3 0 10 -9 16 -20z m53 -22 c-8 -59 -13 -61
-13 -5 0 26 4 47 9 47 5 0 7 -19 4 -42z m-1326 -45 c-3 -10 -5 -4 -5 12 0 17
2 24 5 18 2 -7 2 -21 0 -30z m35 -310 c35 -86 108 -178 180 -231 26 -18 87
-47 135 -64 154 -55 361 -49 502 13 64 28 165 103 204 152 81 100 106 171 108
302 1 41 5 72 10 69 16 -10 9 -126 -12 -196 -28 -96 -77 -175 -151 -244 -193
-180 -484 -216 -737 -91 -122 61 -202 152 -261 301 -27 68 -30 87 -29 174 l2
97 8 -103 c7 -80 16 -120 41 -179z m1337 200 c2 -72 -5 -92 -31 -93 -5 0 -8
36 -8 79 0 75 4 87 31 90 4 1 7 -33 8 -76z m-1171 55 c-3 -7 -11 -13 -18 -13
-7 0 -15 6 -17 13 -3 7 4 12 17 12 13 0 20 -5 18 -12z m-718 -13 c0 -8 -9 -15
-20 -15 -20 0 -26 11 -13 23 12 13 33 7 33 -8z m364 3 c4 6 12 9 19 7 7 -2 25
-6 40 -10 28 -6 29 -6 25 -73 -3 -65 -4 -67 -31 -69 -19 -1 -37 6 -53 22 -20
20 -24 34 -24 82 0 36 4 53 9 44 6 -9 11 -10 15 -3z m1466 -62 c0 -66 -13 -94
-24 -53 -8 30 -8 102 1 110 17 17 23 2 23 -57z m-663 -82 c7 -18 -17 -38 -31
-24 -11 11 -1 40 14 40 6 0 13 -7 17 -16z m-792 -27 c7 -8 15 -31 17 -53 3
-36 1 -39 -22 -39 -22 0 -25 5 -28 39 -5 60 7 79 33 53z m1469 -112 c-24 -37
-75 -28 -73 15 0 10 2 11 6 3 6 -17 34 -16 57 0 23 17 14 50 -17 65 l-22 11
25 0 c18 1 21 4 11 10 -11 7 -10 10 5 13 16 3 19 -4 22 -44 2 -31 -3 -56 -14
-73z m-1834 75 c9 0 7 -6 -5 -20 -21 -24 -32 -25 -50 -6 -12 11 -11 17 2 36
15 21 17 21 28 6 7 -9 18 -16 25 -16z m494 -38 c25 -80 66 -141 144 -214 71
-67 132 -101 247 -140 61 -20 88 -23 215 -22 131 0 153 3 230 28 47 16 93 34
104 41 10 8 25 11 34 8 9 -4 13 -2 9 3 -3 6 22 35 57 66 34 31 82 83 106 116
53 72 66 74 21 4 -30 -48 -108 -127 -161 -165 l-25 -18 25 5 25 5 -25 -21
c-65 -53 -208 -101 -335 -113 -81 -7 -233 7 -320 30 -161 43 -298 144 -360
267 -34 68 -41 108 -29 156 10 34 17 27 38 -36z m1276 12 c0 -8 -5 -12 -10 -9
-6 4 -8 11 -5 16 9 14 15 11 15 -7z m38 -18 c3 -12 -1 -17 -10 -14 -7 3 -15
13 -16 22 -3 12 1 17 10 14 7 -3 15 -13 16 -22z m-98 -20 c0 -3 -4 -8 -10 -11
-5 -3 -10 -1 -10 4 0 6 5 11 10 11 6 0 10 -2 10 -4z m-1530 -35 c0 -11 -4 -22
-8 -25 -14 -9 -35 12 -29 28 9 23 37 20 37 -3z m250 -61 l6 35 46 -71 c122
-188 360 -285 661 -271 221 10 371 73 521 216 32 31 54 47 48 36 -17 -33 -133
-138 -207 -187 -127 -84 -262 -114 -465 -105 -139 6 -268 37 -353 85 -93 52
-175 125 -204 178 -33 64 -59 64 -49 1 15 -89 127 -234 227 -294 84 -50 225
-93 321 -98 l83 -4 -73 9 c-187 24 -345 95 -373 168 -5 13 -13 20 -19 17 -5
-3 -8 0 -5 7 3 7 -5 24 -17 38 -13 14 -25 34 -26 44 -3 18 -2 19 15 5 10 -7
31 -26 46 -42 175 -169 508 -230 837 -151 19 4 15 -1 -15 -19 -43 -27 -129
-55 -210 -68 -47 -8 -46 -8 15 -4 77 5 198 49 277 102 71 47 169 156 215 240
40 72 53 72 17 0 -90 -176 -241 -294 -444 -348 -102 -26 -306 -29 -407 -5
-104 24 -223 73 -276 114 -112 84 -208 229 -220 327 -6 56 10 98 17 45 l4 -35
7 35z m-78 -24 c1 -15 10 -32 20 -37 9 -5 26 -35 38 -66 34 -91 116 -206 195
-271 94 -79 194 -130 329 -167 73 -20 264 -21 356 -1 66 14 95 12 84 -6 -4 -6
-1 -8 7 -6 8 3 13 11 11 17 -1 7 2 10 7 6 18 -10 -5 -50 -37 -64 -18 -8 -32
-18 -32 -22 0 -4 24 -11 53 -15 l52 -8 -75 -8 c-41 -5 -182 -5 -313 -2 -236 7
-239 7 -219 26 30 30 79 36 314 39 120 2 212 6 206 10 -22 12 -538 -3 -551
-16 -7 -6 -27 -31 -46 -54 -24 -29 -41 -41 -55 -39 -15 2 -20 9 -18 23 15 104
15 104 -11 143 -15 20 -37 43 -49 51 -22 13 -23 13 -5 -6 9 -11 17 -24 17 -29
0 -5 11 -22 26 -37 30 -33 26 -43 -23 -52 -57 -10 -71 -21 -98 -75 -29 -58
-37 -63 -28 -18 3 18 2 29 -3 25 -5 -3 -9 21 -9 56 0 44 -5 70 -19 90 -21 32
-33 30 -16 -3 6 -12 10 -24 8 -26 -3 -2 -12 12 -21 32 -10 19 -13 33 -7 29 21
-13 9 8 -32 56 -24 27 -47 49 -51 49 -14 0 2 -56 38 -133 18 -40 35 -94 39
-122 l6 -50 -24 45 c-14 25 -25 37 -26 28 0 -23 -5 -23 -43 3 -26 17 -28 17
-11 2 16 -14 20 -27 16 -48 -3 -18 -1 -26 6 -21 19 11 26 -53 8 -73 -13 -15
-14 -24 -6 -47 6 -15 8 -39 5 -52 -6 -23 -8 -21 -43 29 -40 57 -93 99 -124 99
-16 0 -13 -6 16 -37 59 -65 78 -93 86 -129 7 -29 6 -33 -6 -23 -8 6 -11 16 -7
22 4 6 1 7 -7 2 -8 -5 -19 1 -31 16 -33 45 -31 11 5 -63 52 -107 58 -170 11
-118 -9 10 -31 24 -49 29 -36 11 -148 24 -126 14 8 -3 21 -13 30 -21 13 -14
12 -15 -13 -10 -73 14 -167 -29 -208 -96 -29 -48 -23 -55 12 -13 66 80 154 96
289 52 41 -13 66 -25 55 -25 l-20 -1 20 -9 c11 -5 40 -11 65 -15 46 -6 110
-37 110 -54 0 -4 -23 -18 -52 -30 -28 -12 -75 -39 -103 -61 -56 -43 -82 -52
-69 -22 4 9 7 29 6 44 -1 23 7 31 50 52 29 14 62 26 75 26 13 0 23 5 23 11 0
14 -95 2 -132 -17 -31 -16 -76 -68 -108 -127 l-23 -42 36 34 37 35 -8 -70 c-4
-38 -7 -93 -7 -122 0 -28 -4 -52 -8 -52 -5 0 -5 -5 -1 -12 5 -8 -3 -9 -31 -5
-36 6 -85 40 -85 60 0 5 -14 26 -32 45 l-31 36 7 -29 6 -30 -25 28 c-14 15
-25 34 -25 42 0 9 -19 16 -56 21 -48 6 -58 11 -75 38 -11 17 -24 50 -30 74 -6
23 -15 42 -20 42 -17 0 -9 46 11 63 11 9 20 23 20 30 0 7 33 47 73 88 52 54
84 79 115 89 23 7 42 17 42 22 0 11 -19 10 -80 -4 -109 -25 -202 -152 -202
-275 0 -18 -2 -33 -4 -33 -2 0 -11 14 -20 32 -21 40 -15 183 10 242 38 91 155
206 208 206 10 0 18 5 18 10 0 17 -69 1 -117 -26 -22 -13 -50 -36 -62 -51 -23
-32 -28 -15 -7 26 18 34 69 68 159 106 37 15 67 30 67 32 0 15 -96 -15 -152
-47 -38 -21 -68 -35 -68 -30 0 15 106 102 147 121 59 27 9 23 -59 -5 l-58 -24
0 23 c0 53 77 124 120 110 30 -9 24 -22 -17 -44 -31 -16 -34 -20 -16 -21 12 0
34 5 48 12 26 11 74 2 163 -33 54 -21 30 -5 -67 46 -58 29 -108 61 -113 69 -5
9 -22 16 -39 16 -27 0 -30 3 -24 23 19 64 96 187 149 236 l26 24 40 -18 40
-18 -52 -47 c-59 -53 -117 -141 -80 -121 12 6 24 16 27 21 4 6 23 18 43 27 27
12 32 17 20 20 -25 6 -22 25 6 52 19 18 33 22 65 19 38 -3 39 -2 24 14 -9 10
-38 26 -66 36 -47 18 -49 20 -30 31 12 6 32 11 45 11 15 0 46 20 83 54 61 57
83 71 128 80 22 5 27 12 27 38 0 37 9 33 12 -6z m1540 -9 c57 -38 63 -45 62
-75 -2 -25 2 -32 17 -32 23 0 94 -28 88 -35 -3 -2 -24 3 -48 11 -24 8 -52 12
-63 8 -14 -4 -18 -2 -14 5 4 6 1 11 -7 11 -11 0 -14 9 -12 34 4 31 0 37 -51
70 -30 20 -54 38 -54 41 0 12 23 2 82 -38z m438 18 c7 -8 15 -36 18 -63 2 -26
23 -90 45 -142 23 -54 41 -112 41 -135 1 -22 5 -43 11 -47 10 -7 9 -207 -1
-240 -11 -38 -22 -15 -17 36 3 31 1 61 -5 72 -10 17 -11 17 -12 2 0 -25 -4
-23 -45 18 -21 21 -32 40 -28 47 4 6 8 28 9 47 1 19 4 42 5 50 3 11 -4 14 -27
13 -27 -2 -32 1 -37 26 -4 18 -14 30 -27 34 -12 3 -19 10 -15 16 3 6 -1 11 -9
11 -9 0 -16 5 -16 11 0 5 5 7 12 3 8 -5 9 -2 5 9 -9 23 -2 21 23 -5 12 -13 21
-18 20 -13 -2 6 -2 24 -1 40 l2 30 19 -35 c26 -47 25 -30 -1 22 l-21 40 -31
-28 -31 -29 27 35 c16 19 30 43 33 52 4 9 15 18 26 20 28 4 42 29 34 61 -5 22
-12 27 -34 26 -18 -1 -21 -3 -9 -6 15 -4 12 -8 -15 -21 -34 -18 -80 -86 -72
-107 6 -15 -23 -28 -31 -15 -3 5 4 24 15 42 36 60 20 69 -42 26 -49 -34 -32 3
28 59 50 47 61 53 99 53 26 0 47 -6 55 -15z m-435 -99 c-1 -19 2 -33 7 -30 11
7 10 -3 -2 -27 -12 -22 -1 -25 20 -6 8 6 6 2 -4 -10 -10 -12 -15 -27 -11 -33
4 -7 -10 -29 -33 -53 -35 -37 -80 -107 -68 -107 2 0 21 23 41 50 21 28 39 49
42 47 2 -3 -7 -29 -21 -58 -28 -56 -32 -74 -16 -64 13 8 13 -11 0 -36 -6 -11
-7 -19 -1 -19 5 0 12 12 15 26 9 35 64 107 101 132 17 12 54 27 83 33 l52 13
-32 33 c-17 18 -27 33 -21 33 14 0 93 -86 93 -102 0 -9 -3 -9 -12 0 -16 16
-80 15 -115 0 -36 -17 -113 -102 -101 -113 2 -2 30 14 63 36 33 21 75 41 95
44 19 3 47 8 63 10 40 7 33 -12 -10 -26 -47 -15 -170 -75 -177 -87 -12 -20 60
-201 95 -238 19 -20 28 -22 102 -17 96 5 87 -11 -10 -20 -70 -6 -186 -57 -210
-93 -8 -12 -25 -25 -39 -28 -30 -8 -81 -77 -90 -122 -11 -57 -26 -51 -18 8 8
62 31 137 49 158 6 8 16 22 20 30 7 13 6 13 -7 2 -13 -10 -17 -10 -21 2 -4 9
-2 18 2 21 8 4 22 45 16 45 -2 0 -13 -17 -25 -37 -19 -33 -23 -36 -34 -21 -11
14 -14 11 -24 -28 -7 -24 -12 -60 -12 -79 0 -19 -4 -35 -10 -35 -18 0 -15 198
5 273 7 29 12 53 10 55 -7 7 -27 -71 -41 -162 -15 -101 -19 -116 -33 -116 -8
0 -56 93 -81 158 -7 18 -26 42 -41 53 -35 25 -36 33 -4 75 14 18 25 39 26 46
0 8 2 9 5 2 3 -7 51 34 108 90 109 108 101 94 187 314 13 32 26 20 24 -22z
m378 -87 c-6 -6 -9 -19 -6 -28 5 -12 3 -13 -6 -5 -10 9 -10 17 -1 34 6 12 14
19 18 16 3 -4 1 -11 -5 -17z m-248 -17 c-6 -4 -23 -18 -40 -32 -22 -19 -26
-20 -15 -5 19 25 42 44 55 45 5 0 5 -3 0 -8z m-2167 -25 c2 -12 -3 -17 -17
-17 -12 0 -21 6 -21 13 0 31 32 34 38 4z m2352 13 c0 -5 -5 -10 -11 -10 -5 0
-7 5 -4 10 3 6 8 10 11 10 2 0 4 -4 4 -10z m-30 -118 c0 -13 -41 -43 -53 -39
-6 2 -2 12 11 25 22 22 42 29 42 14z m124 -282 c9 -22 16 -58 16 -80 0 -33 4
-42 23 -49 32 -12 47 -34 45 -62 -1 -13 13 -45 32 -71 23 -33 31 -52 25 -65
-6 -15 -9 -13 -16 13 -5 16 -20 41 -34 54 -32 30 -32 18 0 -24 14 -18 25 -39
25 -47 0 -9 -5 -6 -12 6 -6 11 -27 38 -47 59 -20 21 -29 36 -20 33 12 -4 18 2
22 21 5 22 -1 33 -35 63 -38 33 -42 40 -42 87 -1 40 -12 72 -58 162 -32 62
-55 117 -52 122 6 10 101 -156 128 -222z m-694 206 c0 -2 -8 -10 -17 -17 -16
-13 -17 -12 -4 4 13 16 21 21 21 13z m513 -12 c26 -4 45 -9 43 -13 -6 -10
-196 -1 -196 10 0 10 85 12 153 3z m-553 -18 c0 -2 -8 -10 -17 -17 -16 -13
-17 -12 -4 4 13 16 21 21 21 13z m507 -26 c40 -5 79 -7 87 -4 20 8 21 -10 2
-26 -17 -13 -110 -40 -143 -40 -16 0 -23 6 -23 20 0 11 -6 20 -12 20 -10 0
-10 2 0 9 11 7 11 9 -2 14 -22 9 -20 30 2 23 9 -3 49 -10 89 -16z m-2197 -37
c0 -11 -52 -34 -59 -27 -8 7 29 34 46 34 7 0 13 -3 13 -7z m2328 -25 c-3 -7
-42 -26 -88 -41 -79 -27 -85 -27 -97 -11 -17 23 -8 34 30 35 18 0 55 7 82 14
67 17 77 17 73 3z m-767 -61 c-10 -9 -11 -8 -5 6 3 10 9 15 12 12 3 -3 0 -11
-7 -18z m802 10 c4 -11 -20 -19 -94 -32 -54 -10 -102 -16 -105 -12 -9 8 35 29
91 43 67 17 102 17 108 1z m-83 -57 c-57 -20 -99 -25 -86 -12 10 10 86 30 116
30 16 0 5 -7 -30 -18z m-952 -55 c2 -2 7 -31 11 -66 7 -55 9 -58 11 -24 l2 40
10 -49 c5 -31 5 -58 -1 -75 -9 -26 -10 -26 -16 -4 -4 13 -26 31 -52 44 -38 18
-57 21 -129 17 l-84 -4 0 62 0 63 48 3 c44 4 193 -2 200 -7z m316 9 c9 -3 16
-15 16 -25 0 -15 -8 -19 -32 -20 -31 -1 -31 -2 -8 -8 20 -6 24 -13 22 -37 -2
-16 -7 -33 -12 -39 -5 -6 -14 -40 -20 -76 -13 -77 -14 -79 -61 -107 -65 -39
-72 -32 -100 102 -12 54 -14 57 -22 33 -13 -40 -25 -33 -32 21 -4 26 -11 65
-16 87 -5 25 -4 44 2 50 5 6 54 13 107 16 53 3 107 6 119 7 12 1 28 -1 37 -4z
m-600 -30 c16 -6 23 -54 8 -54 -5 0 -7 -13 -4 -30 2 -16 1 -47 -3 -67 l-7 -38
-18 41 c-19 43 -38 54 -96 54 -18 0 -38 -8 -49 -20 -10 -11 -22 -17 -26 -14
-16 10 -9 43 12 57 14 11 17 16 7 19 -20 7 8 36 46 47 37 11 108 13 130 5z
m-267 -36 c-2 -18 0 -43 6 -56 9 -19 12 -20 26 -8 15 13 16 4 13 -98 l-3 -114
32 -11 c18 -6 65 -11 104 -11 53 0 76 -4 85 -15 7 -9 11 -18 8 -20 -3 -3 -45
-9 -94 -14 l-89 -10 105 3 c74 2 97 0 80 -6 -14 -5 -70 -8 -125 -6 -128 5
-159 20 -175 90 -13 52 -6 116 16 160 8 16 12 39 8 53 -6 24 -8 25 -23 10 -20
-18 -41 -21 -23 -3 7 7 12 20 12 31 0 24 18 57 31 57 7 0 9 -13 6 -32z m1144
-14 c-5 -16 -10 -21 -10 -12 -1 18 10 51 15 45 2 -1 -1 -16 -5 -33z m437 5
c39 -12 72 -26 72 -32 0 -5 -8 -6 -17 -2 -10 3 -31 9 -48 11 -26 4 -24 2 17
-20 48 -27 78 -56 42 -42 -52 21 -79 18 -116 -12 l-37 -29 42 1 c44 1 130 -31
122 -44 -3 -5 -14 -6 -25 -3 -28 7 -172 -14 -247 -37 -72 -22 -164 -80 -183
-115 -7 -14 -17 -25 -22 -25 -14 0 -9 88 7 127 18 42 18 46 4 37 -15 -9 5 27
52 97 40 58 75 80 154 98 65 15 106 12 183 -10z m-1404 -68 c3 -4 -7 -7 -22
-5 -15 2 -19 1 -9 -2 26 -8 21 -34 -8 -34 -18 0 -25 5 -25 18 0 10 3 22 7 25
9 10 51 9 57 -2z m335 -11 c52 -24 50 -37 -2 -15 -71 29 -136 17 -186 -36 -42
-44 -52 -108 -26 -174 7 -19 7 -19 -10 -3 -22 21 -31 104 -16 150 28 86 141
122 240 78z m-589 -5 c-14 -8 -38 -14 -53 -15 -30 0 -72 -37 -104 -91 -10 -16
-21 -29 -25 -29 -7 0 52 102 71 122 4 4 31 12 61 17 76 12 78 12 50 -4z m584
-35 c69 -34 94 -92 75 -170 -3 -12 15 -16 106 -20 132 -6 97 -20 -51 -20 l-93
0 15 28 c7 15 14 44 14 66 0 71 -100 137 -183 121 -24 -5 -28 -4 -17 4 24 17
91 13 134 -9z m-578 -70 l0 -70 -39 0 c-27 0 -48 -8 -69 -25 -51 -43 -66 -26
-24 29 13 17 33 50 45 73 15 31 30 45 54 52 17 5 32 10 33 10 1 1 1 -30 0 -69z
m299 39 c9 -16 15 -45 13 -62 -3 -32 -3 -32 -65 -35 -82 -4 -103 8 -101 56 l1
37 41 -3 c31 -3 48 2 66 17 14 11 26 20 27 21 1 0 10 -14 18 -31z m660 -9 c-4
-12 -9 -19 -12 -17 -3 3 -2 15 2 27 4 12 9 19 12 17 3 -3 2 -15 -2 -27z m-448
12 c13 -8 12 -40 -3 -50 -5 -4 -9 -11 -9 -17 0 -5 -8 -34 -18 -62 -21 -59 -37
-66 -74 -31 -30 28 -31 85 -2 122 31 39 78 56 106 38z m183 -82 c0 -25 -7 -43
-21 -56 -22 -19 -22 -19 -9 5 7 14 10 44 7 74 -4 45 -3 48 9 32 8 -10 14 -35
14 -55z m281 0 c-13 -11 -28 -20 -35 -20 -6 0 3 9 19 19 39 25 46 25 16 1z
m843 -11 c14 -17 27 -36 27 -42 4 -33 3 -97 -1 -97 -3 0 -18 25 -34 56 -31 59
-57 82 -115 100 -35 12 -34 12 31 13 62 1 68 -1 92 -30z m-175 12 c10 -6 5
-11 -19 -16 -31 -7 -30 -8 46 -41 84 -36 125 -69 149 -120 18 -39 11 -60 -31
-93 -34 -27 -44 -18 -16 12 47 50 13 106 -98 162 -43 22 -62 25 -147 25 -60
-1 -107 -6 -121 -14 -21 -11 -16 -12 36 -8 69 5 154 -11 185 -34 16 -12 17
-15 5 -10 -10 3 -26 9 -35 12 -13 5 -12 2 3 -9 12 -9 40 -21 63 -26 24 -5 45
-12 49 -15 9 -10 -10 -24 -47 -33 l-35 -9 37 -41 c20 -22 37 -48 37 -57 0 -9
7 -16 15 -16 42 0 -20 -40 -101 -64 -11 -4 -32 -18 -45 -32 l-24 -26 33 7 c37
8 37 8 17 -32 -21 -43 -45 -60 -87 -65 l-36 -4 -17 58 c-11 35 -29 68 -48 85
-24 23 -29 24 -22 8 32 -85 37 -109 30 -150 -11 -74 -25 -63 -25 19 0 75 -22
156 -42 156 -6 0 -7 -8 -3 -17 4 -10 14 -40 22 -66 24 -82 9 -75 -22 9 -16 43
-35 85 -42 93 -20 20 -6 27 15 8 26 -24 39 -21 16 4 -11 12 -26 18 -38 15 -10
-3 -30 3 -42 13 -13 10 -45 22 -71 26 -33 5 -42 9 -32 16 41 26 148 -14 223
-82 61 -56 84 -51 34 7 -33 37 -123 85 -186 99 l-32 7 35 24 c57 39 116 66
170 79 40 10 44 13 20 14 -16 0 -47 -3 -67 -8 -53 -12 -50 10 6 48 84 58 248
105 285 82z m-579 -35 c0 -2 -8 -10 -17 -17 -16 -13 -17 -12 -4 4 13 16 21 21
21 13z m-75 -79 c-17 -12 -50 -40 -75 -63 -41 -37 -112 -74 -142 -74 -7 0 -3
7 8 16 10 8 15 13 9 11 -5 -3 -31 -14 -57 -26 -55 -25 -65 -36 -42 -49 14 -8
11 -12 -19 -21 -63 -21 -77 5 -23 39 19 11 38 30 41 40 4 11 12 20 19 20 18 0
197 88 219 107 9 9 17 12 17 6 0 -5 -9 -18 -20 -28 -11 -10 -20 -22 -20 -27 0
-6 24 11 52 35 29 25 55 43 58 40 3 -2 -9 -14 -25 -26z m-1006 -29 c17 -18 31
-37 31 -41 0 -5 4 -6 9 -2 5 3 19 -7 30 -21 24 -30 69 -57 81 -49 5 3 29 -5
55 -17 40 -20 43 -23 25 -30 -15 -5 -39 1 -83 23 -63 32 -152 97 -143 106 2 3
-10 18 -27 34 -18 15 -27 29 -20 29 7 0 26 -15 42 -32z m664 -22 c3 -8 -6 -11
-29 -8 -31 4 -33 6 -17 17 19 14 39 10 46 -9z m-218 -1 c30 -14 30 -14 -15 -9
l-45 6 25 -21 c25 -21 71 -27 170 -23 40 1 42 0 20 -9 -43 -18 -181 -16 -217
3 -34 17 -47 11 -37 -15 6 -15 56 -40 114 -56 l35 -9 -34 -1 c-51 -1 -111 20
-128 46 -14 21 -14 26 3 51 35 53 57 61 109 37z m-290 -23 c-3 -3 -11 0 -18 7
-9 10 -8 11 6 5 10 -3 15 -9 12 -12z m58 -9 c-7 -2 -19 -2 -25 0 -7 3 -2 5 12
5 14 0 19 -2 13 -5z m481 -24 c-9 -16 -20 -10 -21 12 -2 17 1 18 12 9 8 -7 12
-16 9 -21z m-401 14 c-13 -2 -33 -2 -45 0 -13 2 -3 4 22 4 25 0 35 -2 23 -4z
m-202 -69 c12 -15 12 -17 -1 -12 -8 3 -25 1 -38 -3 -15 -6 -21 -5 -17 1 3 6
-1 10 -9 10 -8 0 -18 5 -22 12 -5 7 -3 8 5 4 8 -5 12 -3 10 5 -4 36 1 40 29
20 16 -11 35 -28 43 -37z m824 37 c-6 -5 -21 -11 -35 -15 -21 -5 -20 -3 5 9
35 17 42 18 30 6z m942 -68 c-2 -16 -4 -5 -4 22 0 28 2 40 4 28 2 -13 2 -35 0
-50z m-1077 51 c0 -6 -65 -34 -77 -34 -9 1 58 39 70 40 4 0 7 -2 7 -6z m-800
-39 c22 -14 41 -33 42 -43 0 -9 2 -21 2 -27 1 -5 19 -27 39 -47 36 -35 37 -38
21 -56 -17 -20 -17 -20 -43 4 -14 13 -32 24 -39 24 -7 0 -15 7 -18 15 -4 8
-12 15 -19 15 -6 0 -20 9 -30 20 -18 20 -17 20 28 20 27 0 47 5 47 11 0 5 -4
8 -9 5 -11 -7 -123 22 -135 35 -6 5 -17 9 -25 9 -11 0 -12 -3 -5 -8 6 -4 13
-22 16 -39 3 -25 -1 -38 -18 -54 -21 -20 -22 -20 -36 -2 -15 20 -52 43 -69 43
-7 0 1 -12 16 -26 l28 -25 -34 -29 c-23 -20 -29 -29 -18 -30 9 0 22 7 29 15 7
8 18 15 25 15 19 0 27 -30 13 -47 -20 -24 -18 -41 3 -36 35 9 20 -12 -21 -30
-51 -22 -70 -22 -70 1 0 15 2 15 11 2 9 -12 9 -11 4 5 -4 11 -10 29 -13 40 -2
11 -9 25 -14 32 -5 7 -7 21 -3 33 4 12 1 27 -5 35 -10 12 -6 23 20 55 75 95
191 121 280 65z m1225 -31 c92 -55 145 -113 145 -158 0 -13 -5 -13 -32 4 -48
29 -51 25 -18 -27 16 -27 25 -49 20 -51 -5 -2 -27 6 -49 17 -57 29 -61 26 -12
-10 24 -17 41 -32 39 -33 -1 -2 -17 -6 -34 -9 -26 -5 -33 -2 -48 24 -10 17
-15 37 -12 46 4 9 2 19 -4 23 -5 3 -11 18 -12 33 -3 34 -22 29 -26 -6 -2 -15
-5 -27 -7 -27 -15 0 -35 15 -35 26 0 28 -18 13 -27 -23 -9 -41 -32 -57 -28
-20 2 13 13 44 25 68 l23 44 12 -40 c7 -22 13 -32 14 -23 1 9 -4 29 -9 44 -8
21 -8 29 2 36 25 15 -3 8 -40 -11 -20 -10 -57 -37 -82 -59 -36 -32 -51 -39
-73 -35 -15 3 -30 10 -33 15 -9 14 52 101 101 147 39 36 50 41 92 41 37 0 62
-8 108 -36z m-1087 -1 c2 -9 -7 -13 -26 -13 -37 0 -62 9 -62 22 0 14 83 5 88
-9z m328 2 c16 -8 37 -15 46 -15 9 0 20 -4 23 -10 3 -5 1 -10 -6 -10 -7 0 -4
-6 6 -14 16 -11 17 -16 7 -29 -11 -13 -10 -17 5 -26 17 -9 17 -11 -2 -25 -20
-15 -20 -15 0 -16 15 0 16 -3 7 -12 -7 -7 -12 -40 -12 -79 0 -39 -5 -71 -11
-75 -8 -4 -7 -9 2 -15 11 -7 9 -9 -6 -10 -11 -1 5 -5 35 -8 l55 -6 -45 -17
c-31 -11 -38 -17 -22 -17 20 -1 21 -3 10 -21 -9 -14 -24 -20 -50 -20 -63 0
-43 -15 40 -31 59 -11 69 -15 44 -17 -18 -2 -36 -10 -39 -18 -3 -8 -16 -14
-28 -14 -13 0 -31 -3 -40 -6 -22 -9 -1 -23 35 -25 23 -1 23 -2 -5 -9 -29 -7
-29 -8 10 -9 62 -2 71 -15 19 -30 -55 -16 -123 -9 -178 20 -30 15 -37 17 -27
5 8 -9 41 -25 75 -35 47 -15 54 -20 31 -20 -34 -1 -114 33 -116 49 -1 5 -3 15
-4 20 -1 6 -3 19 -4 31 0 11 -5 17 -11 14 -6 -4 -10 14 -10 47 0 44 9 71 55
163 49 98 56 121 67 208 6 53 12 97 13 97 2 0 16 -7 31 -15z m494 -4 c0 -5
-26 -26 -57 -45 -32 -20 -53 -36 -48 -37 16 -2 -38 -17 -64 -18 -21 -1 -17 4
23 35 42 32 119 73 139 74 4 0 7 -4 7 -9z m-785 -52 c5 -5 -1 -9 -17 -9 -14 0
-32 7 -39 17 -13 15 -11 16 16 9 17 -4 34 -12 40 -17z m-235 -24 c13 -14 19
-25 13 -25 -6 0 -18 11 -27 25 -9 14 -15 25 -13 25 2 0 14 -11 27 -25z m285
-15 c-8 -13 -35 -13 -55 0 -11 7 -5 10 23 10 23 0 36 -4 32 -10z m-576 -102
c1 -10 -3 -18 -9 -18 -6 0 -9 25 -9 58 1 56 1 57 10 17 4 -22 8 -48 8 -57z
m281 68 c0 -3 -4 -8 -10 -11 -5 -3 -10 -1 -10 4 0 6 5 11 10 11 6 0 10 -2 10
-4z m70 -21 c13 -14 21 -25 18 -25 -2 0 -15 11 -28 25 -13 14 -21 25 -18 25 2
0 15 -11 28 -25z m370 21 c0 -4 -173 -59 -225 -72 -11 -3 -29 -8 -40 -11 -17
-5 -18 -4 -7 9 11 14 34 23 167 62 48 14 105 21 105 12z m448 -16 c35 -11 73
-20 84 -20 12 0 39 -9 62 -20 23 -10 59 -26 80 -35 65 -26 34 -27 -42 -1 -39
13 -105 32 -147 41 -41 10 -97 25 -123 36 l-47 18 35 0 c19 1 64 -8 98 -19z
m-1563 0 c-3 -5 -24 -10 -46 -10 -24 0 -38 4 -34 10 3 6 24 10 46 10 24 0 38
-4 34 -10z m2580 1 c5 -9 -24 -31 -39 -31 -9 0 -2 24 9 32 14 10 23 10 30 -1z
m-102 -26 c-3 -9 -8 -14 -10 -11 -3 3 -2 9 2 15 9 16 15 13 8 -4z m-2510 -2
c-7 -2 -21 -2 -30 0 -10 3 -4 5 12 5 17 0 24 -2 18 -5z m607 -13 c0 -5 -8 -10
-17 -10 -15 0 -16 2 -3 10 19 12 20 12 20 0z m2112 -21 c23 -30 17 -72 -8 -62
-10 4 -12 9 -4 18 8 9 6 14 -7 19 -14 6 -15 9 -4 15 10 7 9 10 -8 16 -11 3
-21 11 -21 16 0 19 32 5 52 -22z m-2728 -8 c-3 -16 -1 -38 6 -51 15 -29 6 -37
-30 -23 -21 8 -30 8 -33 -1 -8 -21 -62 20 -65 50 -5 37 20 54 80 54 47 0 47 0
42 -29z m1140 19 c30 -11 32 -18 12 -45 -13 -17 -19 -18 -62 -8 -27 6 -62 15
-79 19 -30 6 -30 7 20 24 59 22 75 23 109 10z m481 -11 l40 -12 -93 -20 c-54
-11 -97 -16 -101 -11 -5 5 -12 20 -16 34 -5 19 -4 21 4 10 9 -13 11 -12 11 4
0 17 6 18 58 13 31 -3 75 -11 97 -18z m858 -15 c-17 -13 -17 -13 2 -14 19 -1
19 -1 2 -14 -11 -9 -14 -15 -7 -18 20 -6 0 -58 -26 -64 -35 -9 -44 3 -44 58 0
67 19 91 61 76 28 -9 28 -11 12 -24z m152 26 c17 -7 17 -9 4 -14 -8 -4 -31 0
-50 8 l-34 15 30 0 c17 0 39 -4 50 -9z m-2458 -12 c16 -13 -70 -60 -101 -56
-26 4 -32 30 -12 50 17 17 94 21 113 6z m549 -9 c19 -21 19 -21 -9 -8 -15 7
-27 16 -27 21 0 14 16 9 36 -13z m-467 -42 c1 -5 -3 -5 -9 -2 -5 3 -10 16 -9
28 0 21 1 21 9 2 5 -11 9 -24 9 -28z m601 34 c0 -5 -12 -11 -27 -15 -16 -3
-39 -8 -53 -11 -14 -3 -5 3 20 14 53 22 60 24 60 12z m1065 -21 c-20 -23 -29
-21 -19 4 3 9 13 16 22 16 13 0 12 -3 -3 -20z m-1250 -20 c-16 -16 -31 -27
-34 -24 -6 6 45 54 56 54 4 0 -6 -13 -22 -30z m1153 1 c10 -6 5 -11 -19 -20
-41 -14 -44 -14 -30 2 6 8 8 17 4 20 -9 10 30 8 45 -2z m-968 -15 c0 -15 -38
-29 -53 -19 -5 3 1 12 14 19 31 17 39 17 39 0z m-748 -8 c-15 -8 -21 -17 -16
-30 7 -22 -9 -24 -26 -3 -17 21 4 45 39 44 26 0 26 0 3 -11z m1515 -20 c76
-16 100 -24 96 -34 -5 -13 -118 -54 -149 -54 -7 0 -22 17 -33 38 -11 20 -20
30 -21 22 -1 -13 -2 -13 -9 0 -5 8 -12 26 -16 39 -6 21 -5 23 11 16 11 -4 65
-16 121 -27z m-1153 6 c3 -8 2 -12 -4 -9 -6 3 -10 10 -10 16 0 14 7 11 14 -7z
m1420 7 c3 -5 26 -12 51 -15 64 -10 56 -24 -12 -23 -32 1 -78 -2 -103 -6 -47
-8 -38 1 24 23 16 6 27 13 24 15 -3 3 -24 -1 -46 -9 -25 -9 -42 -11 -42 -5 0
21 92 39 104 20z m846 0 c0 -4 -8 -19 -19 -32 -10 -13 -19 -28 -19 -34 -1 -13
-28 -19 -50 -10 -15 6 -13 8 8 20 14 8 21 15 15 16 -5 0 1 4 14 8 35 9 37 29
4 34 -23 3 -22 4 10 6 20 0 37 -3 37 -8z m-2493 -22 c-15 -11 -25 -25 -22 -29
3 -5 0 -12 -6 -16 -6 -3 -15 0 -20 7 -10 16 35 59 61 59 9 -1 5 -8 -13 -21z
m542 -7 c27 -18 12 -29 -18 -13 -11 6 -32 11 -47 11 -23 0 -25 2 -14 15 14 17
39 13 79 -13z m312 -22 c-13 -45 -18 -50 -44 -50 -32 0 -77 21 -97 45 -17 21
-14 23 61 39 102 22 98 24 80 -34z m-1161 30 c13 -8 13 -10 -2 -10 -9 0 -20 5
-23 10 -8 13 5 13 25 0z m714 -21 c-18 -20 -64 -26 -64 -9 0 12 61 39 73 33 5
-3 1 -14 -9 -24z m266 12 c0 -27 -22 -62 -49 -75 -39 -21 -117 -33 -107 -18 4
7 21 12 37 12 47 0 89 27 96 60 5 27 23 43 23 21z m-66 -31 c-6 -6 -10 -3 -10
10 0 13 4 16 10 10 7 -7 7 -13 0 -20z m1341 -25 c83 -24 163 -48 178 -54 16
-6 33 -11 38 -11 14 0 11 68 -3 73 -24 8 -3 15 32 9 29 -4 31 -6 15 -12 -18
-7 -17 -9 10 -15 17 -5 33 -13 38 -19 4 -6 4 -47 1 -91 -4 -49 -2 -91 5 -108
8 -22 8 -31 -2 -41 -21 -22 -54 -36 -83 -36 -26 0 -27 0 -9 -20 18 -20 17 -20
-7 -20 -14 0 -28 6 -30 13 -6 18 -3 69 6 97 8 24 8 24 -11 8 -10 -9 -45 -29
-78 -43 -56 -25 -60 -26 -72 -9 -18 24 -16 89 2 104 12 10 26 9 73 -4 87 -24
104 -22 126 18 23 43 16 66 -21 66 -51 0 -393 123 -393 142 0 6 8 7 18 3 9 -4
85 -26 167 -50z m-1492 28 c-7 -2 -19 -2 -25 0 -7 3 -2 5 12 5 14 0 19 -2 13
-5z m1117 -48 c48 -10 43 -22 -5 -15 -48 7 -75 24 -75 47 0 11 6 10 25 -6 14
-11 39 -23 55 -26z m-1283 19 c2 -6 -20 -18 -49 -26 -29 -9 -89 -27 -133 -40
-205 -64 -200 -31 6 37 133 44 169 50 176 29z m-388 -34 c7 0 9 -4 6 -10 -3
-5 -22 -10 -41 -10 -29 0 -34 3 -34 23 0 35 11 40 35 17 12 -11 27 -20 34 -20z
m-129 20 c0 -13 -70 -13 -90 0 -11 7 0 10 38 10 28 0 52 -4 52 -10z m2614 1
c3 -5 -5 -11 -19 -13 -17 -4 -25 -1 -25 8 0 15 36 19 44 5z m-2414 -17 c0 -8
-4 -12 -10 -9 -5 3 -10 10 -10 16 0 5 5 9 10 9 6 0 10 -7 10 -16z m1895 -5
c17 -8 15 -9 -9 -5 -43 6 -93 -12 -116 -41 -21 -27 -27 -87 -10 -98 6 -3 10 5
10 19 0 40 41 76 86 76 29 0 35 -3 24 -10 -12 -8 -11 -10 7 -10 12 0 24 -4 27
-9 4 -5 -11 -7 -33 -4 -49 7 -87 -2 -95 -22 -4 -13 -2 -14 14 -5 29 16 115 12
130 -5 8 -9 9 -15 2 -15 -6 0 -14 5 -17 10 -3 6 -24 10 -46 10 -71 0 -108 -71
-54 -106 16 -11 22 -20 17 -28 -5 -6 -12 -38 -15 -71 -3 -33 -8 -67 -12 -76
-4 -11 0 -18 14 -22 18 -4 19 -8 8 -31 -8 -16 -20 -26 -34 -26 -30 0 -40 -20
-14 -27 34 -9 24 -23 -16 -23 -35 0 -36 -1 -17 -16 16 -13 17 -16 4 -21 -10
-4 1 -11 30 -20 l45 -13 -42 4 c-43 4 -92 32 -93 54 0 6 4 12 8 12 4 0 8 8 9
18 0 9 11 42 23 72 12 30 24 64 27 75 4 11 10 23 15 26 23 15 20 87 -5 142
-31 67 -41 110 -32 137 15 47 106 74 160 49z m-1581 -13 c-23 -7 -46 -16 -53
-20 -6 -4 -11 -5 -11 -2 0 11 56 35 80 35 19 0 15 -4 -16 -13z m160 -38 c7
-38 5 -66 -13 -139 -12 -50 -20 -98 -17 -106 9 -23 -18 -10 -29 15 -5 11 -17
23 -27 25 -10 3 -18 11 -18 17 0 8 9 10 25 6 21 -5 25 -2 34 31 15 52 13 63
-5 31 -20 -39 -25 -35 -18 13 6 38 6 40 -17 35 -77 -16 -101 -17 -97 -4 3 9
27 12 81 12 76 -1 77 -1 77 25 0 14 -9 41 -20 59 l-21 33 28 -3 c25 -3 29 -9
37 -50z m367 0 c-8 -22 -21 -29 -81 -42 -137 -31 -154 -32 -173 -2 -10 14 -23
26 -31 26 -15 0 -8 -74 14 -148 14 -46 10 -58 -17 -48 -15 6 -15 8 -3 16 13 8
12 10 -2 10 -20 0 -24 25 -7 36 8 4 8 9 0 17 -6 6 -11 43 -10 81 0 39 3 65 6
57 4 -10 7 -10 13 -1 4 6 36 14 71 16 90 7 212 23 218 30 11 11 12 -22 2 -48z
m682 25 l107 -6 0 -38 c0 -21 -5 -41 -11 -45 -14 -9 -163 14 -221 34 -43 14
-48 19 -48 45 0 28 2 29 33 23 17 -4 80 -9 140 -13z m-1737 -30 c-7 -7 -26 7
-26 19 0 6 6 6 15 -2 9 -7 13 -15 11 -17z m598 11 c10 -25 -2 -34 -46 -34 -25
0 -49 -7 -61 -17 -18 -17 -19 -17 -16 1 2 11 24 30 49 42 54 28 66 29 74 8z
m-161 -31 c-8 -21 -16 -39 -18 -41 -6 -6 -135 22 -135 30 0 4 1 8 3 8 1 0 27
9 57 20 30 10 67 19 82 19 l27 1 -16 -37z m1100 -14 c-6 -6 -7 3 -4 23 4 28 6
29 9 9 2 -13 0 -27 -5 -32z m367 -5 c5 -33 3 -55 -8 -76 -11 -23 -12 -32 -2
-38 15 -10 15 -21 -2 -31 -10 -7 -10 -9 2 -9 9 -1 7 -5 -7 -10 -16 -7 -63 -4
-63 4 0 1 14 37 30 79 17 43 30 92 30 109 0 44 12 27 20 -28z m417 24 l48 -21
-50 -8 c-27 -4 -60 -11 -72 -14 -18 -4 -26 1 -38 24 -8 17 -15 35 -15 42 0 16
66 5 127 -23z m-2182 -31 c4 -23 13 -62 21 -86 16 -49 16 -50 -40 -81 -54 -30
-86 -21 -86 23 0 18 4 37 10 43 15 15 70 126 70 141 0 30 19 0 25 -40z m85 -5
c0 -15 -2 -15 -10 -2 -13 20 -13 33 0 25 6 -3 10 -14 10 -23z m2558 -72 c123
-40 190 -66 184 -72 -16 -16 -178 -105 -347 -190 -88 -44 -185 -95 -215 -113
-55 -32 -308 -165 -824 -433 l-269 -140 -36 17 c-20 9 -103 52 -186 95 -82 43
-202 106 -265 139 -115 60 -188 98 -290 155 -180 98 -388 211 -475 257 -195
104 -360 194 -379 208 -18 12 -3 19 155 71 96 32 180 60 187 63 6 2 12 -2 12
-11 0 -20 -65 -56 -177 -97 -51 -19 -93 -37 -93 -41 0 -4 8 -9 18 -12 9 -3 71
-35 137 -71 66 -36 126 -65 133 -65 7 0 11 -3 8 -8 -2 -4 19 -20 47 -35 36
-19 44 -22 27 -8 -14 12 -33 23 -42 26 -9 3 -15 11 -12 18 2 7 -53 39 -143 82
-120 57 -142 71 -120 73 34 4 160 -53 215 -98 49 -39 110 -47 235 -30 89 11
96 11 135 -9 23 -12 43 -21 46 -21 2 0 14 25 26 57 16 44 18 58 8 64 -7 4 -9
11 -6 15 4 3 14 -1 23 -9 14 -14 13 -21 -6 -72 -23 -63 -64 -116 -83 -109 -7
3 -25 -7 -40 -21 -15 -14 -33 -25 -41 -25 -24 0 -96 32 -163 73 -100 60 -84
36 20 -30 123 -79 131 -84 363 -211 179 -98 323 -173 653 -342 l103 -53 322
163 c295 149 439 225 587 309 30 18 71 39 90 49 19 9 41 23 48 29 12 11 150
83 159 83 3 0 1 -5 -3 -12 -4 -7 -3 -8 5 -4 6 4 9 11 6 16 -6 10 74 54 83 46
3 -3 1 -6 -4 -6 -6 0 -19 -7 -30 -15 -17 -15 -16 -15 12 -1 35 17 44 50 10 40
-12 -3 -37 -15 -56 -27 -19 -11 -81 -44 -138 -73 l-102 -52 -23 20 c-13 11
-41 31 -63 43 -43 24 -49 42 -19 59 11 6 25 17 31 25 10 12 27 12 117 1 58 -7
123 -10 144 -8 21 3 99 36 175 73 93 45 145 65 165 63 24 -3 14 -10 -72 -53
-55 -27 -102 -53 -103 -58 -2 -4 -7 -5 -11 -3 -4 3 -8 -1 -8 -8 0 -13 34 3
197 92 60 33 63 36 40 43 -91 27 -273 109 -287 129 -13 19 -14 22 -2 18 8 -2
101 -33 207 -68z m-1886 13 c60 -23 72 -24 112 -14 60 15 64 14 76 -9 9 -17 6
-20 -22 -28 l-33 -8 57 -22 c31 -12 87 -26 125 -33 37 -6 75 -13 83 -16 8 -3
-54 -27 -139 -55 l-154 -50 84 -35 c46 -19 110 -45 141 -56 32 -12 58 -24 58
-27 0 -3 -67 -29 -149 -58 l-150 -53 -108 49 c-129 59 -154 67 -162 54 -3 -5
-17 -13 -31 -17 -22 -7 -23 -6 -11 9 10 12 10 16 1 16 -6 0 -14 -9 -17 -20 -3
-11 -9 -20 -14 -20 -13 0 -11 27 2 35 6 4 8 13 5 21 -3 8 0 17 8 20 10 4 7 18
-15 62 -15 31 -31 71 -35 87 -4 17 -11 36 -17 43 -11 13 -6 15 17 6 9 -3 16
-12 16 -20 0 -14 32 -21 110 -27 29 -2 20 -4 -27 -5 -40 -1 -73 -6 -73 -11 0
-17 23 -77 36 -92 8 -8 14 -23 14 -33 0 -9 10 -21 23 -27 18 -8 46 -1 155 42
72 28 132 54 132 58 0 3 -28 17 -62 30 -35 14 -85 36 -113 50 l-50 25 40 8
c22 4 73 20 114 34 80 29 80 35 -5 54 -64 14 -134 46 -134 60 0 13 17 9 112
-27z m-472 -17 c0 -69 -18 -76 -96 -37 -63 32 -81 47 -70 58 9 9 75 21 124 22
l42 1 0 -44z m-185 4 c8 -16 15 -37 14 -47 0 -11 -5 -5 -12 14 -7 17 -15 35
-19 39 -5 4 -8 11 -8 16 0 16 10 8 25 -22z m1408 -2 c40 -10 53 -9 83 5 19 9
42 17 52 17 30 0 -18 -27 -81 -45 -31 -9 -57 -18 -57 -19 0 -5 177 -77 186
-75 5 1 17 1 27 0 17 -1 17 -2 2 -18 -12 -11 -19 -13 -24 -5 -5 8 -23 3 -61
-14 -99 -47 -159 -66 -182 -59 -82 25 -247 89 -243 96 3 4 24 10 48 14 65 11
204 57 187 63 -31 10 -40 23 -29 44 7 13 16 17 27 13 9 -3 38 -11 65 -17z
m542 12 c-3 -5 -12 -10 -18 -10 -7 0 -6 4 3 10 19 12 23 12 15 0z m-1955 -63
c0 -6 -9 -2 -20 8 -11 10 -20 25 -20 33 0 11 6 8 20 -8 11 -13 20 -28 20 -33z
m248 41 c7 -7 12 -23 12 -36 0 -38 -34 -24 -38 16 -3 33 6 40 26 20z m1670
-36 c3 -16 -1 -19 -17 -15 -21 5 -27 23 -14 37 12 11 28 0 31 -22z m482 -35
c0 -18 -38 -67 -51 -67 -6 0 -1 12 10 26 25 32 27 50 6 58 -8 3 -15 16 -15 28
0 23 0 23 25 -4 14 -15 25 -33 25 -41z m-2220 -26 c0 -31 -21 -79 -37 -85 -9
-4 -36 3 -61 15 l-45 22 39 20 c21 11 50 28 63 38 26 21 41 17 41 -10z m-166
-5 c-3 -9 -10 -16 -15 -16 -6 0 -5 9 1 21 13 24 24 20 14 -5z m1903 -6 c-14
-11 -28 -30 -30 -43 -3 -12 -4 -6 -4 13 2 26 8 38 27 47 34 17 38 7 7 -17z
m140 -3 c60 -32 61 -33 40 -47 -12 -7 -40 -17 -63 -20 l-41 -6 -16 44 c-27 72
-11 78 80 29z m-2226 3 l44 -20 -32 0 c-27 0 -63 21 -63 36 0 7 6 5 51 -16z
m366 -22 c-3 -8 -6 -5 -6 6 -1 11 2 17 5 13 3 -3 4 -12 1 -19z m1733 3 c0 -5
-7 -11 -15 -15 -15 -5 -20 5 -8 17 9 10 23 9 23 -2z m-2033 -57 c-3 -3 -12 -4
-19 -1 -8 3 -5 6 6 6 11 1 17 -2 13 -5z m459 -68 c10 -32 9 -35 -14 -41 -30
-7 -62 2 -62 20 0 12 46 54 60 55 3 0 10 -15 16 -34z m1107 3 c40 -17 101 -41
136 -54 l64 -23 -39 -12 c-22 -7 -84 -33 -138 -57 -114 -51 -98 -52 -283 19
-62 23 -109 46 -105 49 4 3 21 11 37 17 17 6 71 29 120 51 50 22 100 40 113
40 13 1 55 -13 95 -30z m457 -20 c0 -5 -4 -9 -10 -9 -5 0 -10 7 -10 16 0 8 5
12 10 9 6 -3 10 -10 10 -16z m-1726 -65 c10 -25 -1 -29 -14 -5 -6 12 -7 21 -1
21 5 0 12 -7 15 -16z m204 -54 c-26 -16 -108 -25 -108 -12 0 6 21 13 48 15 26
2 54 4 62 5 12 1 11 -1 -2 -8z m1585 -7 c4 -3 -19 -21 -51 -40 -31 -18 -64
-38 -72 -43 -16 -10 -132 -71 -273 -144 -49 -25 -92 -45 -95 -43 -4 1 -38 -17
-77 -39 -96 -56 -329 -174 -345 -174 -6 0 -100 47 -209 104 -108 57 -225 119
-261 136 -36 18 -117 61 -180 95 -63 34 -139 75 -167 90 -29 15 -53 33 -53 41
0 8 3 14 6 14 3 0 68 -32 145 -71 l140 -71 107 40 c59 22 117 43 129 46 14 5
64 -13 162 -59 78 -36 146 -65 151 -65 27 0 3 -18 -52 -39 -107 -42 -188 -81
-188 -91 0 -6 6 -10 14 -10 7 0 68 -27 136 -60 l123 -61 132 63 c73 35 131 66
129 69 -2 3 -60 30 -129 60 -110 47 -147 69 -116 69 5 0 60 24 122 53 183 86
159 83 279 36 58 -22 117 -46 131 -52 24 -9 38 -4 127 46 108 61 200 107 218
107 6 0 14 -3 17 -7z"/>
<path d="M2436 4639 c22 -24 58 -68 79 -96 22 -29 41 -53 43 -53 19 0 -105
158 -140 179 -14 8 -8 -3 18 -30z"/>
<path d="M1638 4559 c-18 -10 -25 -49 -9 -49 8 0 41 43 41 55 0 8 -13 6 -32
-6z"/>
<path d="M1077 3445 c-33 -17 -58 -41 -51 -48 7 -7 82 19 101 34 16 14 55 -9
95 -55 15 -17 28 -26 28 -20 0 6 -22 32 -50 58 -52 49 -77 55 -123 31z"/>
<path d="M942 3280 c-9 -15 -8 -20 6 -26 9 -4 22 -6 29 -5 7 1 51 -19 99 -44
48 -25 88 -45 91 -45 2 0 -1 9 -7 19 -5 11 -54 42 -108 69 -92 46 -99 48 -110
32z"/>
<path d="M2180 3051 c0 -6 4 -12 8 -15 5 -3 9 1 9 9 0 8 -4 15 -9 15 -4 0 -8
-4 -8 -9z"/>
<path d="M820 2980 c20 -13 43 -13 35 0 -3 6 -16 10 -28 10 -18 0 -19 -2 -7
-10z"/>
<path d="M1196 2874 c-4 -9 -4 -19 -1 -22 2 -3 7 3 11 12 4 9 4 19 1 22 -2 3
-7 -3 -11 -12z"/>
<path d="M1160 2818 c0 -4 9 -22 20 -40 11 -18 20 -28 20 -23 0 6 -9 24 -20
40 -11 17 -20 27 -20 23z"/>
<path d="M880 2751 c14 -11 52 -35 85 -53 33 -18 84 -58 113 -88 48 -49 51
-51 42 -23 -14 40 -103 128 -155 153 -22 11 -56 22 -75 26 l-35 6 25 -21z"/>
<path d="M710 2713 c-30 -11 -101 -75 -130 -118 -41 -60 -38 -78 5 -22 19 24
64 66 100 93 36 26 65 49 65 51 0 5 -23 2 -40 -4z"/>
<path d="M942 2441 c-22 -16 -43 -35 -48 -42 -9 -15 6 -6 64 38 54 41 40 44
-16 4z"/>
<path d="M1065 2340 c-3 -5 -1 -10 4 -10 6 0 11 5 11 10 0 6 -2 10 -4 10 -3 0
-8 -4 -11 -10z"/>
<path d="M2503 3015 c0 -33 2 -45 4 -27 2 18 2 45 0 60 -2 15 -4 0 -4 -33z"/>
<path d="M2308 2754 c-3 -3 -20 -6 -37 -6 -18 -1 -34 -6 -38 -11 -3 -6 -1 -7
5 -3 7 4 12 3 12 -3 0 -5 15 -9 34 -8 26 2 34 6 33 20 -1 19 -1 19 -9 11z"/>
<path d="M2887 2760 c-26 -16 -47 -32 -47 -35 0 -6 87 42 105 57 22 19 -14 6
-58 -22z"/>
<path d="M2779 2683 c-13 -16 -12 -17 4 -4 16 13 21 21 13 21 -2 0 -10 -8 -17
-17z"/>
<path d="M3201 2613 c42 -55 62 -76 56 -59 -9 24 -50 75 -61 75 -5 1 -2 -7 5
-16z"/>
<path d="M2240 2410 c-8 -5 -10 -10 -5 -10 6 0 17 5 25 10 8 5 11 10 5 10 -5
0 -17 -5 -25 -10z"/>
<path d="M1450 2426 c0 -2 8 -10 18 -17 15 -13 16 -12 3 4 -13 16 -21 21 -21
13z"/>
<path d="M1228 2253 c7 -3 16 -2 19 1 4 3 -2 6 -13 5 -11 0 -14 -3 -6 -6z"/>
<path d="M1115 2190 c3 -5 8 -10 11 -10 2 0 4 5 4 10 0 6 -5 10 -11 10 -5 0
-7 -4 -4 -10z"/>
<path d="M2365 2150 c-3 -5 -2 -10 4 -10 5 0 13 5 16 10 3 6 2 10 -4 10 -5 0
-13 -4 -16 -10z"/>
<path d="M148 1349 c24 -11 49 -18 55 -16 15 6 -56 37 -80 36 -10 0 1 -10 25
-20z"/>
<path d="M3662 1348 c-23 -11 -40 -23 -38 -26 8 -7 96 28 96 39 0 13 -9 11
-58 -13z"/>
<path d="M220 1260 c8 -5 22 -9 30 -9 10 0 8 3 -5 9 -27 12 -43 12 -25 0z"/>
<path d="M378 1119 c42 -13 41 -34 -5 -58 -31 -16 -35 -21 -20 -26 19 -8 66 1
84 17 35 28 -6 79 -62 77 l-30 -1 33 -9z"/>
<path d="M3118 1123 c7 -3 16 -2 19 1 4 3 -2 6 -13 5 -11 0 -14 -3 -6 -6z"/>
<path d="M3410 1110 c-25 -25 -25 -42 -2 -63 19 -17 87 -23 96 -9 3 5 -10 14
-29 20 -43 16 -52 40 -20 52 32 12 32 20 0 20 -14 0 -34 -9 -45 -20z"/>
<path d="M3366 1031 c-4 -5 3 -7 14 -4 23 6 26 13 6 13 -8 0 -17 -4 -20 -9z"/>
<path d="M499 960 c46 -24 60 -35 50 -41 -13 -8 -11 -10 20 -13 8 0 16 -7 18
-13 8 -24 -29 -26 -74 -4 -51 25 -69 22 -28 -5 31 -20 114 -34 141 -23 61 24
119 5 207 -68 16 -13 42 -23 59 -23 16 0 57 -16 90 -35 51 -30 65 -34 96 -28
21 4 39 7 42 6 3 0 19 -3 35 -7 27 -6 28 -5 12 8 -10 8 -42 17 -70 21 -29 4
-56 11 -62 15 -5 5 -55 31 -110 59 -106 54 -123 64 -170 97 -59 41 -93 53
-181 63 -49 5 -100 13 -114 16 -14 4 4 -8 39 -25z"/>
<path d="M3355 980 c-11 -5 -48 -9 -82 -9 -70 -1 -136 -23 -202 -67 -90 -60
-134 -85 -139 -79 -4 3 0 10 8 15 11 7 11 10 2 10 -7 0 -16 -10 -21 -23 -13
-35 -118 -87 -174 -87 -25 0 -49 -5 -53 -11 -4 -7 0 -9 14 -5 12 4 34 0 52 -9
31 -16 33 -16 100 19 37 20 81 36 98 36 16 0 35 7 42 14 21 27 109 78 147 86
24 6 55 4 90 -5 54 -14 85 -9 138 22 37 21 9 23 -39 2 -26 -11 -59 -19 -74
-17 l-27 4 28 14 c18 9 23 16 16 21 -8 4 0 13 22 24 19 10 36 21 39 25 3 5 21
13 40 18 19 6 26 10 15 10 -11 1 -29 -3 -40 -8z"/>
<path d="M855 866 c17 -7 41 -16 55 -20 20 -5 19 -3 -5 8 -16 7 -41 16 -55 20
-20 5 -19 3 5 -8z"/>
<path d="M584 802 c25 -29 73 -37 115 -19 l34 14 -54 6 c-30 3 -67 9 -84 13
-30 7 -30 7 -11 -14z"/>
<path d="M3215 810 c-11 -5 -39 -9 -63 -9 -52 -1 -47 -17 7 -26 27 -4 49 -2
70 10 49 25 37 47 -14 25z"/>
<path d="M2540 710 c-8 -6 -24 -10 -36 -10 -24 0 -64 -39 -64 -63 0 -9 -10
-23 -22 -31 -12 -9 -19 -19 -15 -22 12 -13 57 15 67 40 5 14 22 32 38 40 30
15 58 43 51 51 -3 2 -11 0 -19 -5z"/>
<path d="M1300 694 c0 -3 24 -16 54 -30 41 -19 53 -29 49 -42 -2 -10 2 -23 9
-29 17 -14 77 -22 84 -11 3 4 0 8 -6 8 -7 0 -35 19 -63 43 -61 51 -127 83
-127 61z"/>
</g>
</svg>
